# xmcd
#
# Track frame offsets: 
#        150
#        16355
#        31937
#        49137
#        61099
#        74810
#        91482
#        107841
#        123919
#        140623
#        157315
#        173491
#        189047
#        205177
#
# Disc length: 2893 seconds
#
# Revision: 0
# Processed by: cddbd v1.5.2PL0 Copyright (c) Steve Scherf et al.
# Submitted via: ExactAudioCopy v0.95a3
#
DISCID=c10b4b0e
DTITLE=Daniela Rohde - Licht im Herzen
DYEAR=2005
DGENRE=Schlager
TTITLE0=Licht im Herzen
TTITLE1=Liebe ist ein Geschenk
TTITLE2=Seh ich es in Deinen Augen
TTITLE3=Das machst Du
TTITLE4=Augen lieben Augen sehen
TTITLE5=Himmel und Hölle
TTITLE6=Komm ins Bett meiner Träume
TTITLE7=Ich will immer für Dich da sein
TTITLE8=Starke Gedanken
TTITLE9=Mit DIr will ich leben
TTITLE10=Du bist der Mann der mir gefällt
TTITLE11=Ich leb auf 'nem Stern
TTITLE12=Licht im Herzen (Karaoke)
TTITLE13=Das machst Du (Karaoke)
EXTD=
EXTT0=
EXTT1=
EXTT2=
EXTT3=
EXTT4=
EXTT5=
EXTT6=
EXTT7=
EXTT8=
EXTT9=
EXTT10=
EXTT11=
EXTT12=
EXTT13=
PLAYORDER=
